<svg xmlns="http://www.w3.org/2000/svg" viewBox="0 0 64 64">
  <defs>
    <linearGradient id="trackvault-bg" x1="12" y1="10" x2="52" y2="54" gradientUnits="userSpaceOnUse">
      <stop offset="0" stop-color="#ff9858"/>
      <stop offset="1" stop-color="#ffcc70"/>
    </linearGradient>
  </defs>
  <rect width="64" height="64" rx="18" fill="url(#trackvault-bg)"/>
  <circle cx="32" cy="31" r="19" fill="#24150e" opacity=".93"/>
  <circle cx="32" cy="31" r="8" fill="#ffbd6f"/>
  <circle cx="32" cy="31" r="2.8" fill="#24150e"/>
  <path d="M20.5 31c0-6.35 5.15-11.5 11.5-11.5" fill="none" stroke="#ffbd6f" stroke-width="2.5" stroke-linecap="round" opacity=".42"/>
  <path d="M43.5 31c0 6.35-5.15 11.5-11.5 11.5" fill="none" stroke="#ffbd6f" stroke-width="2.5" stroke-linecap="round" opacity=".42"/>
  <path d="M25 34.5h14v10.25c0 1.8-1.45 3.25-3.25 3.25h-7.5A3.25 3.25 0 0 1 25 44.75V34.5Z" fill="#24150e"/>
  <path d="M28.75 34.5v-2.15c0-2.45 1.55-4.15 3.25-4.15s3.25 1.7 3.25 4.15v2.15" fill="none" stroke="#24150e" stroke-width="3.2" stroke-linecap="round" stroke-linejoin="round"/>
  <path d="M32 39.1a1.85 1.85 0 0 1 1 3.4v2.35h-2V42.5a1.85 1.85 0 0 1 1-3.4Z" fill="#ffbd6f"/>
</svg>
